<?xml version="1.0" standalone="no"?>
<!DOCTYPE svg PUBLIC "-//W3C//DTD SVG 20010904//EN"
 "http://www.w3.org/TR/2001/REC-SVG-20010904/DTD/svg10.dtd">
<svg version="1.0" xmlns="http://www.w3.org/2000/svg"
 width="225.000000pt" height="225.000000pt" viewBox="0 0 225.000000 225.000000"
 preserveAspectRatio="xMidYMid meet">
<metadata>
Created by potrace 1.11, written by Peter Selinger 2001-2013
</metadata>
<g transform="translate(0.000000,225.000000) scale(0.100000,-0.100000)"
fill="#000000" stroke="none">
<path d="M0 1125 l0 -1125 128 1 c70 1 120 3 110 6 -22 6 -30 30 -17 55 6 11
8 26 5 33 -5 14 23 45 42 45 14 0 16 -62 3 -108 l-10 -32 959 0 c623 0 961 4
965 10 8 13 45 13 45 0 0 -5 5 -10 10 -10 6 0 10 58 10 155 0 127 -3 155 -14
155 -17 0 -15 32 2 38 9 3 12 106 12 393 0 214 -3 389 -6 389 -3 0 -14 -4 -24
-10 -14 -7 -23 -6 -34 6 -24 24 -20 34 24 52 l40 17 0 72 c0 81 -6 103 -28
103 -13 0 -14 12 -9 83 4 45 9 103 13 127 5 38 2 51 -19 81 -14 20 -28 51 -32
69 -10 44 -47 60 -78 33 -33 -30 -45 -32 -127 -19 -87 13 -93 22 -61 91 25 53
26 66 6 59 -8 -4 -15 -15 -15 -25 0 -10 -4 -19 -8 -19 -5 0 -16 -16 -26 -37
-15 -32 -19 -34 -32 -21 -24 24 -20 72 13 124 33 55 84 95 111 87 26 -6 63 38
67 83 4 46 37 78 71 70 14 -4 41 3 70 19 26 14 55 25 65 25 14 0 19 7 19 25
l0 25 -300 0 c-338 0 -318 6 -276 -78 28 -57 41 -171 23 -196 -11 -16 -16 -12
-45 32 -27 42 -31 56 -29 105 2 32 -1 57 -5 57 -4 0 -8 12 -8 28 0 28 -15 60
-24 51 -9 -9 -8 -83 2 -127 10 -46 14 -44 -48 -26 -11 3 -20 9 -20 14 0 17
-52 21 -77 5 -21 -14 -34 -15 -93 -6 -103 16 -140 14 -166 -10 -28 -26 -100
-30 -135 -7 -24 15 -49 67 -63 131 -6 27 -7 27 -86 27 -44 0 -80 -3 -80 -7 0
-4 5 -20 11 -37 9 -26 7 -39 -14 -84 -21 -45 -26 -50 -37 -37 -9 11 -11 32 -6
71 11 92 7 94 -144 94 -93 0 -130 -3 -134 -12 -5 -10 -7 -10 -12 0 -4 9 -63
12 -245 12 l-239 0 0 -1125z m2030 1098 c-1 -29 -53 -115 -83 -137 -24 -18
-29 -18 -42 -5 -13 13 -13 19 5 49 11 19 25 47 31 62 15 39 89 64 89 31z
m-1479 -30 c38 -37 50 -63 29 -63 -14 0 -79 72 -80 88 0 19 10 14 51 -25z
m118 -179 c17 -14 31 -29 31 -33 0 -9 -128 -51 -155 -51 -14 0 -27 -13 -40
-37 -11 -21 -23 -40 -26 -43 -15 -11 -49 -76 -49 -92 0 -10 -12 -25 -27 -35
-16 -10 -38 -28 -51 -41 -21 -22 -23 -23 -51 -6 -29 17 -30 17 -63 -9 -79 -62
-76 -48 -51 -239 5 -40 3 -48 -11 -48 -9 0 -16 7 -16 16 0 9 -16 45 -36 80
-45 81 -59 134 -35 134 19 1 71 44 71 61 0 20 47 57 82 64 31 7 118 85 118
106 0 5 7 9 15 9 8 0 15 7 15 16 0 8 4 13 9 10 20 -13 41 7 41 39 0 39 33 65
83 65 25 0 37 6 47 25 12 22 26 31 57 34 6 0 25 -11 42 -25z m752 -22 c-7 -2
-18 1 -23 6 -8 8 -4 9 13 5 13 -4 18 -8 10 -11z m-121 -53 c0 -7 13 -10 34 -7
19 2 32 0 30 -4 -3 -4 -23 -8 -45 -8 -21 0 -39 -4 -39 -10 0 -5 -16 -10 -36
-10 -19 0 -42 -7 -50 -15 -27 -27 -36 -16 -12 14 13 17 33 30 45 30 12 1 25 6
28 11 8 14 45 13 45 -1z m430 -84 c0 -5 -5 -3 -10 5 -5 8 -10 20 -10 25 0 6 5
3 10 -5 5 -8 10 -19 10 -25z m-667 -12 c-7 -2 -21 -2 -30 0 -10 3 -4 5 12 5
17 0 24 -2 18 -5z m197 -13 c0 -5 -4 -10 -9 -10 -6 0 -13 5 -16 10 -3 6 1 10
9 10 9 0 16 -4 16 -10z m180 -72 c0 -36 -4 -35 -14 5 -4 16 -2 27 4 27 5 0 10
-14 10 -32z m-340 -23 c0 -5 -5 -3 -10 5 -5 8 -10 20 -10 25 0 6 5 3 10 -5 5
-8 10 -19 10 -25z m-333 -37 c-3 -8 -6 -5 -6 6 -1 11 2 17 5 13 3 -3 4 -12 1
-19z m734 -57 c-6 -28 -6 -39 1 -34 15 8 1 -83 -18 -121 -17 -35 -17 -36 -1
-36 7 0 20 18 30 40 9 22 21 40 26 40 12 0 -17 -72 -33 -82 -6 -4 -7 -8 -3 -8
5 0 -1 -16 -12 -36 -12 -19 -19 -40 -16 -45 4 -5 0 -9 -8 -9 -8 0 -22 -11 -31
-25 -10 -15 -22 -23 -28 -18 -9 5 -9 8 0 11 7 2 12 10 12 17 0 7 7 16 16 19 9
4 14 9 11 13 -4 3 -1 13 5 21 10 11 9 17 -6 28 -19 13 -19 15 0 56 14 31 18
61 17 113 -2 48 0 65 7 55 7 -12 12 -8 21 18 15 45 22 34 10 -17z m36 17 c-3
-7 -5 -2 -5 12 0 14 2 19 5 13 2 -7 2 -19 0 -25z m-770 0 c-3 -8 -6 -5 -6 6
-1 11 2 17 5 13 3 -3 4 -12 1 -19z m658 12 c3 -5 -1 -10 -10 -10 -9 0 -13 5
-10 10 3 6 8 10 10 10 2 0 7 -4 10 -10z m-218 -32 c-3 -8 -6 -5 -6 6 -1 11 2
17 5 13 3 -3 4 -12 1 -19z m221 -39 c-3 -8 -7 -3 -11 10 -4 17 -3 21 5 13 5
-5 8 -16 6 -23z m-1 -131 c-3 -8 -6 -5 -6 6 -1 11 2 17 5 13 3 -3 4 -12 1 -19z
m124 -31 c-10 -9 -11 -8 -5 6 3 10 9 15 12 12 3 -3 0 -11 -7 -18z m160 -34
c-12 -20 -14 -14 -5 12 4 9 9 14 11 11 3 -2 0 -13 -6 -23z m-281 -23 c0 -11
-4 -20 -9 -20 -5 0 -7 9 -4 20 3 11 7 20 9 20 2 0 4 -9 4 -20z m241 -43 c-6
-8 -8 -23 -5 -33 6 -15 4 -17 -6 -7 -11 10 -11 18 -1 39 6 15 14 24 18 21 3
-4 1 -13 -6 -20z m-41 -83 c-18 -21 -24 -10 -8 15 7 12 14 17 16 11 2 -6 -2
-17 -8 -26z m-245 -24 c-20 -22 -35 -26 -35 -8 0 6 3 9 6 5 4 -3 13 0 21 8 22
22 29 18 8 -5z m-1244 -78 c6 -16 5 -22 -5 -22 -19 0 -39 27 -31 40 10 16 27
7 36 -18z m1413 -8 c3 -9 2 -12 -5 -9 -5 4 -18 1 -27 -6 -13 -11 -12 -8 2 9
23 26 22 26 30 6z m-1287 -56 c-3 -7 -5 -2 -5 12 0 14 2 19 5 13 2 -7 2 -19 0
-25z m1216 -13 c-3 -9 -8 -14 -10 -11 -3 3 -2 9 2 15 9 16 15 13 8 -4z m394
-14 c0 -21 -7 -32 -24 -40 -12 -6 -23 -8 -23 -4 0 6 40 73 44 73 2 0 3 -13 3
-29z m33 4 c0 -8 -7 -15 -16 -15 -14 0 -14 3 -4 15 7 8 14 15 16 15 2 0 4 -7
4 -15z m-1702 -27 c7 -7 12 -20 12 -31 0 -30 -34 -16 -38 16 -4 29 6 35 26 15z
m425 -55 c-3 -10 -11 -24 -16 -31 -16 -21 1 -27 23 -7 24 22 31 17 23 -14 -4
-17 -8 -19 -14 -9 -6 9 -9 6 -9 -11 l0 -24 -20 23 c-22 26 -25 42 -10 71 13
24 32 25 23 2z m-333 -27 c0 -24 -17 -28 -23 -6 -3 13 0 20 9 20 8 0 14 -6 14
-14z m-60 -63 c0 -45 -3 -53 -19 -53 -38 0 -57 50 -31 83 33 41 50 31 50 -30z
m80 -13 c0 -5 -2 -10 -4 -10 -3 0 -8 5 -11 10 -3 6 -1 10 4 10 6 0 11 -4 11
-10z m-183 -17 c4 -11 -26 -27 -35 -19 -2 3 -2 12 2 21 6 18 27 16 33 -2z
m1038 -13 c-3 -5 -12 -10 -18 -10 -7 0 -6 4 3 10 19 12 23 12 15 0z m-175 -10
c0 -5 -4 -10 -10 -10 -5 0 -10 5 -10 10 0 6 5 10 10 10 6 0 10 -4 10 -10z m33
-78 c-3 -12 -9 -22 -14 -22 -12 0 -11 7 2 32 13 25 20 19 12 -10z m100 -49
c-13 -2 -35 -2 -50 0 -16 2 -5 4 22 4 28 0 40 -2 28 -4z m-918 -53 c3 -5 -1
-10 -9 -10 -9 0 -16 5 -16 10 0 6 4 10 9 10 6 0 13 -4 16 -10z m1293 -29 c3
-8 -1 -12 -9 -9 -7 2 -15 10 -17 17 -3 8 1 12 9 9 7 -2 15 -10 17 -17z m732
-81 c0 -11 -4 -20 -9 -20 -14 0 -23 18 -16 30 10 17 25 11 25 -10z m-1816
-131 c-8 -14 -24 -10 -24 6 0 9 6 12 15 9 8 -4 12 -10 9 -15z m245 -45 c41 -9
44 -44 4 -44 -26 0 -93 33 -93 45 0 7 51 6 89 -1z m-214 -14 c15 -6 6 -9 -33
-9 -33 -1 -51 3 -47 9 7 12 52 12 80 0z m1775 -80 c8 -5 11 -12 8 -16 -10 -9
-38 3 -38 16 0 12 10 13 30 0z m-163 -28 c6 -4 14 -19 18 -34 6 -24 2 -30 -29
-49 -27 -16 -35 -26 -31 -40 3 -11 7 -28 11 -39 6 -24 -13 -63 -29 -57 -7 2
-12 10 -13 18 0 8 -10 34 -21 59 -35 73 -37 93 -13 123 16 21 30 27 58 27 20
0 42 -4 49 -8z m-1121 -50 c-10 -10 -29 15 -21 28 6 9 10 8 17 -4 6 -10 7 -20
4 -24z m-561 -2 c-3 -5 -11 -10 -16 -10 -6 0 -7 5 -4 10 3 6 11 10 16 10 6 0
7 -4 4 -10z m735 -10 c4 7 10 8 13 4 3 -5 -6 -31 -20 -59 -14 -27 -28 -61 -32
-75 -5 -16 -15 -25 -27 -25 -20 0 -20 6 -10 88 2 15 4 34 5 42 0 8 10 15 20
15 11 0 23 5 27 12 6 9 9 9 12 -1 3 -10 6 -10 12 -1z"/>
<path d="M1472 1590 c0 -14 2 -19 5 -12 2 6 2 18 0 25 -3 6 -5 1 -5 -13z"/>
<path d="M1455 1435 c4 -11 8 -28 9 -37 0 -9 4 -14 9 -11 5 3 6 11 3 18 -2 7
0 18 5 24 5 6 6 9 3 6 -4 -3 -14 1 -22 8 -14 10 -15 9 -7 -8z"/>
<path d="M1081 2218 c5 -18 9 -51 9 -74 0 -25 6 -47 15 -54 15 -13 22 -3 49
73 3 11 15 21 26 24 11 3 20 9 20 13 0 4 9 10 20 13 11 3 20 12 20 21 0 13
-14 16 -84 16 l-85 0 10 -32z"/>
<path d="M1447 2160 c-4 -16 0 -20 21 -20 15 0 35 7 45 14 16 12 15 14 -14 20
-45 9 -46 8 -52 -14z"/>
</g>
</svg>
